<?xml version="1.0" encoding="utf-8"?>
<!-- Generator: Adobe Illustrator 18.0.0, SVG Export Plug-In . SVG Version: 6.00 Build 0)  -->
<!DOCTYPE svg PUBLIC "-//W3C//DTD SVG 1.1//EN" "http://www.w3.org/Graphics/SVG/1.1/DTD/svg11.dtd">
<svg version="1.1" id="Layer_1" xmlns="http://www.w3.org/2000/svg" xmlns:xlink="http://www.w3.org/1999/xlink" x="0px" y="0px"
	 viewBox="0 0 442 442" enable-background="new 0 0 442 442" xml:space="preserve">
<path fill="#CC6141" d="M15.1,428.8c6.7-19.8,13.2-38.9,19.7-58c5.4-15.9,10.9-31.8,16.1-47.8c0.4-1.3,0.1-3.4-0.7-4.6
	C39.3,299.5,31,279.6,27,258.2c-13.7-72.7,5.6-135.5,58.5-187.1c33.3-32.4,73.8-51,120-54.8c76.9-6.2,139.3,21.9,185.6,83.9
	c22.3,29.9,34.8,64.1,36.8,101.5c4.3,79.5-27.5,141.5-93.7,185.1c-39.4,25.9-83.5,35-130.4,30.2c-25.9-2.6-50.4-10.2-73.4-22.3
	c-2.1-1.1-3.8-1.2-6.1-0.5C89.2,405.4,54,416.5,18.8,427.7C17.8,428,16.7,428.3,15.1,428.8z M66.2,378.8c1.7-0.5,2.7-0.7,3.7-1
	c19.6-6.2,39.2-12.4,58.7-18.7c2.3-0.7,4-0.6,6,0.7c20.2,12.8,42.2,21.1,65.9,24.4c46.6,6.5,89-4,127.1-31.8
	c21-15.3,37.5-34.6,49.6-57.5c16.5-31.3,22.5-64.6,17.9-99.7c-5.8-44.6-26.8-81-61.2-109.3c-26.7-22-57.6-34.7-92.3-37.8
	c-36.3-3.2-70.3,4.2-101.8,22.5c-22.4,13-40.8,30.2-55.4,51.5c-13.9,20.3-23,42.7-27,67c-3.1,18.6-3,37.2,0.1,55.7
	c4.2,24.7,13.4,47.5,28,68c1.7,2.4,1.9,4.4,0.9,7.1c-4.1,11.5-7.9,23.1-11.8,34.6C71.7,362.4,69.1,370.3,66.2,378.8z"/>
<path fill="#CC6141" d="M162.6,125.1c1,0,1.8,0.1,2.5,0c7-1.1,10.7,2.6,13.1,8.6c5.1,12.5,10.4,25,15.6,37.5
	c2.1,4.9-0.3,8.9-2.9,12.6c-3.1,4.4-6.8,8.4-10.3,12.6c-3.1,3.6-3.5,5.9-1,10.1c16.4,27.4,39.1,47.3,69.1,58.7
	c4.1,1.6,6.5,0.9,9.5-2.7c4.9-5.8,9.6-11.7,14.3-17.6c4-5,6.4-5.9,12.3-3.2c13.3,6.1,26.5,12.5,39.8,18.8c3.2,1.5,4.1,4.1,4.1,7.5
	c0.2,18.2-8.5,30.6-24.7,38.1c-12.1,5.6-24.6,7.9-37.5,3.5c-15.3-5.3-30.9-10.3-45.6-16.9c-17-7.6-31.2-19.4-44.1-32.7
	c-17.3-17.8-32.8-37.1-43.5-59.7c-7.4-15.5-9.2-31.8-3.2-48.4c3.3-9.2,9.1-16.9,16.5-23.2C151.4,124.6,157,124.4,162.6,125.1z"/>
</svg>
